<svg xmlns="http://www.w3.org/2000/svg" width="113.803" height="113" viewBox="0 0 113.803 113"><path d="M1437.479,142.337a5.123,5.123,0,0,1-2.062.556,4.836,4.836,0,0,1-1.991-.308,4.71,4.71,0,0,1-1.656-1.079l1.137-1.325a3.664,3.664,0,0,0,1.9.956,3.246,3.246,0,0,0,1.994-.332,2.913,2.913,0,0,0,.917-.684,1.7,1.7,0,0,0,.413-.846,1.424,1.424,0,0,0-.145-.882,1.45,1.45,0,0,0-.8-.77,2.533,2.533,0,0,0-1.252-.057l-2.332.376a4.179,4.179,0,0,1-2.415-.222,3.083,3.083,0,0,1-1.538-1.489,3.182,3.182,0,0,1-.35-1.814,3.412,3.412,0,0,1,.693-1.688,4.458,4.458,0,0,1,1.6-1.286,4.956,4.956,0,0,1,1.925-.541,4.6,4.6,0,0,1,1.825.248,4,4,0,0,1,1.512.953l-1.1,1.325a2.908,2.908,0,0,0-3.419-.5,2.544,2.544,0,0,0-.845.648,1.593,1.593,0,0,0-.367.831,1.555,1.555,0,0,0,.17.9,1.576,1.576,0,0,0,.792.755,2.233,2.233,0,0,0,1.31.1l2.166-.347a4.6,4.6,0,0,1,2.487.15,2.924,2.924,0,0,1,1.552,1.482,3.082,3.082,0,0,1,.325,1.817,3.569,3.569,0,0,1-.744,1.732A4.837,4.837,0,0,1,1437.479,142.337Z" transform="translate(-1400.126 -125.47)" fill="#fff"></path><path d="M1474.207,128.95a5.91,5.91,0,0,1-2.4.018,5.7,5.7,0,0,1-2.105-.89,6.006,6.006,0,0,1-1.615-1.664,6.617,6.617,0,0,1-.941-2.337,6.734,6.734,0,0,1-.064-2.509,5.817,5.817,0,0,1,.826-2.175,5.716,5.716,0,0,1,1.585-1.64,5.985,5.985,0,0,1,2.225-.926,5.692,5.692,0,0,1,2.318-.033,5.32,5.32,0,0,1,1.892.769,4.3,4.3,0,0,1,1.284,1.289l-1.509,1.132a3.478,3.478,0,0,0-1.522-1.289,3.411,3.411,0,0,0-2.116-.181,3.947,3.947,0,0,0-1.952.976,3.826,3.826,0,0,0-1.081,1.816,5.644,5.644,0,0,0,.942,4.58,3.754,3.754,0,0,0,1.71,1.243,3.992,3.992,0,0,0,2.177.119,3.375,3.375,0,0,0,2.766-2.771l1.833.445a4.422,4.422,0,0,1-.672,1.683,5.256,5.256,0,0,1-1.433,1.461A5.688,5.688,0,0,1,1474.207,128.95Z" transform="translate(-1425.695 -115.839)" fill="#fff"></path><path d="M1510.876,126.019l.676-11.972,4.355.246a4.836,4.836,0,0,1,2.1.562,3.387,3.387,0,0,1,1.366,1.367,3.768,3.768,0,0,1,.409,2.046,3.614,3.614,0,0,1-.738,2.086,3.526,3.526,0,0,1-1.736,1.192l2.492,4.977-2.153-.121L1515,121.012l1.2.793-3.166-.179-.254,4.5Zm2.246-6.079,2.491.14a2.4,2.4,0,0,0,1.155-.192,1.853,1.853,0,0,0,.788-.673,2.354,2.354,0,0,0,.122-2.169,1.8,1.8,0,0,0-.707-.749,2.462,2.462,0,0,0-1.127-.313l-2.49-.141Z" transform="translate(-1455.455 -114.047)" fill="#fff"></path><path d="M1551.865,134.523a6.226,6.226,0,0,1-2.134-1.238,6.1,6.1,0,0,1-1.425-1.877,6.023,6.023,0,0,1-.6-2.288,6.644,6.644,0,0,1,1.624-4.659,5.906,5.906,0,0,1,4.163-1.992,6.686,6.686,0,0,1,4.6,1.6,5.95,5.95,0,0,1,2.02,4.156,6.368,6.368,0,0,1-.37,2.479,6.27,6.27,0,0,1-1.259,2.169,6.092,6.092,0,0,1-1.885,1.422,5.989,5.989,0,0,1-2.283.585A6.289,6.289,0,0,1,1551.865,134.523Zm.572-1.641a4.269,4.269,0,0,0,1.73.245,4.149,4.149,0,0,0,1.594-.442,4.315,4.315,0,0,0,1.317-1.041,4.96,4.96,0,0,0,1.158-3.321,4.436,4.436,0,0,0-.385-1.634,4.094,4.094,0,0,0-.971-1.344,4.516,4.516,0,0,0-3.237-1.128,4.1,4.1,0,0,0-1.6.449,4.322,4.322,0,0,0-1.309,1.044,4.781,4.781,0,0,0-.874,1.553,4.862,4.862,0,0,0-.284,1.768,4.211,4.211,0,0,0,.377,1.631,4.125,4.125,0,0,0,.982,1.339A4.279,4.279,0,0,0,1552.437,132.881Z" transform="translate(-1480.422 -119.752)" fill="#fff"></path><path d="M1584.648,149l6.72-9.931,1.573,1.065-5.773,8.531,4.292,2.9-.947,1.4Z" transform="translate(-1505.48 -131.018)" fill="#fff"></path><path d="M1607.1,168.447l8.557-8.4,1.33,1.356-7.351,7.215,3.63,3.7-1.206,1.184Z" transform="translate(-1520.704 -145.24)" fill="#fff"></path><path d="M1632.179,203.416l10.719-5.375,1.76,3.51a6.689,6.689,0,0,1,.785,3.235,5.287,5.287,0,0,1-.922,2.848,6.87,6.87,0,0,1-5.6,2.81,5.325,5.325,0,0,1-2.848-.958,6.626,6.626,0,0,1-2.13-2.56Zm2.362.94.924,1.842a4.43,4.43,0,0,0,1.467,1.74,3.658,3.658,0,0,0,1.991.631A4.792,4.792,0,0,0,1641.2,208a4.684,4.684,0,0,0,1.8-1.488,3.743,3.743,0,0,0,.678-1.969,4.387,4.387,0,0,0-.514-2.209l-.924-1.842Z" transform="translate(-1537.71 -171.003)" fill="#fff"></path><path d="M1650.517,250.939a6.233,6.233,0,0,1,.051-2.466,6.1,6.1,0,0,1,.953-2.156,6.027,6.027,0,0,1,1.712-1.633,6.644,6.644,0,0,1,4.862-.834,5.907,5.907,0,0,1,3.758,2.679,6.69,6.69,0,0,1,.823,4.8,5.989,5.989,0,0,1-.945,2.154,5.922,5.922,0,0,1-1.714,1.625,6.374,6.374,0,0,1-2.348.877,6.279,6.279,0,0,1-2.507-.052,6.1,6.1,0,0,1-2.157-.961,5.98,5.98,0,0,1-1.617-1.715A6.277,6.277,0,0,1,1650.517,250.939Zm1.713-.294a4.268,4.268,0,0,0,.623,1.632,4.154,4.154,0,0,0,1.157,1.181,4.323,4.323,0,0,0,1.549.649,4.743,4.743,0,0,0,1.791.019,4.678,4.678,0,0,0,1.675-.614,4.436,4.436,0,0,0,1.244-1.128,4.1,4.1,0,0,0,.706-1.5,4.516,4.516,0,0,0-.58-3.379,4.1,4.1,0,0,0-1.166-1.18,4.327,4.327,0,0,0-1.547-.641,4.783,4.783,0,0,0-1.782-.013,4.843,4.843,0,0,0-1.684.607,4.212,4.212,0,0,0-1.245,1.12,4.132,4.132,0,0,0-.7,1.508A4.285,4.285,0,0,0,1652.23,250.645Z" transform="translate(-1550.078 -201.963)" fill="#fff"></path><path d="M1650.731,294.553l12.363-1.354-.32,1.986-10.674.989.079-.493,9.81,4.382-.315,1.955-10.689,1.085.082-.508,9.823,4.3-.317,1.97-11.317-5.146.34-2.114,10.533-1.126-.089.556-9.646-4.388Z" transform="translate(-1549.29 -235.53)" fill="#fff"></path><path d="M1635.66,339.664l10.657,5.5-.7,1.359-11.338,1.722.232-.7,8.354,4.309-.863,1.674-10.656-5.5.7-1.359,11.373-1.649-.2.674-8.425-4.346Z" transform="translate(-1537.144 -267.038)" fill="#fff"></path><path d="M1570.334,411.814a5.131,5.131,0,0,1,2.064-.545,4.838,4.838,0,0,1,1.989.318,4.707,4.707,0,0,1,1.651,1.087l-1.143,1.319a3.664,3.664,0,0,0-1.9-.965,3.245,3.245,0,0,0-2,.322,2.911,2.911,0,0,0-.921.68,1.7,1.7,0,0,0-.418.844,1.425,1.425,0,0,0,.14.882,1.449,1.449,0,0,0,.8.774,2.525,2.525,0,0,0,1.252.063l2.334-.364a4.177,4.177,0,0,1,2.414.234,3.08,3.08,0,0,1,1.53,1.5,3.179,3.179,0,0,1,.341,1.815,3.416,3.416,0,0,1-.7,1.685,4.459,4.459,0,0,1-1.6,1.278,4.954,4.954,0,0,1-1.928.531,4.6,4.6,0,0,1-1.824-.257,3.993,3.993,0,0,1-1.507-.96l1.107-1.319a2.908,2.908,0,0,0,3.417.519,2.546,2.546,0,0,0,.849-.644,1.594,1.594,0,0,0,.371-.83,1.553,1.553,0,0,0-.165-.9,1.579,1.579,0,0,0-.789-.759,2.237,2.237,0,0,0-1.31-.107l-2.168.336a4.606,4.606,0,0,1-2.486-.162,2.926,2.926,0,0,1-1.545-1.489,3.086,3.086,0,0,1-.316-1.819,3.566,3.566,0,0,1,.753-1.728A4.837,4.837,0,0,1,1570.334,411.814Z" transform="translate(-1494.086 -315.59)" fill="#fff"></path><path d="M1531.84,424.208a5.912,5.912,0,0,1,2.4-.005,5.7,5.7,0,0,1,2.1.9,6.011,6.011,0,0,1,1.608,1.672,6.619,6.619,0,0,1,.928,2.342,6.731,6.731,0,0,1,.052,2.51,5.82,5.82,0,0,1-.837,2.17,5.716,5.716,0,0,1-1.593,1.633,5.984,5.984,0,0,1-2.23.915,5.693,5.693,0,0,1-2.318.021,5.322,5.322,0,0,1-1.888-.779,4.3,4.3,0,0,1-1.277-1.3l1.515-1.124a3.476,3.476,0,0,0,1.516,1.3,3.409,3.409,0,0,0,2.115.192,3.947,3.947,0,0,0,1.956-.967,3.819,3.819,0,0,0,1.09-1.811,5.643,5.643,0,0,0-.918-4.584,3.755,3.755,0,0,0-1.7-1.251,3.989,3.989,0,0,0-2.176-.13,3.376,3.376,0,0,0-2.78,2.756l-1.831-.454a4.409,4.409,0,0,1,.681-1.679,5.248,5.248,0,0,1,1.44-1.454A5.692,5.692,0,0,1,1531.84,424.208Z" transform="translate(-1466.776 -324.281)" fill="#fff"></path><path d="M1500.513,426.753l-.734,11.968-4.353-.267a4.841,4.841,0,0,1-2.094-.572,3.393,3.393,0,0,1-1.359-1.374,3.77,3.77,0,0,1-.4-2.048,3.611,3.611,0,0,1,.749-2.082,3.526,3.526,0,0,1,1.741-1.183L1491.6,426.2l2.153.132,2.619,5.4-1.193-.8,3.165.194.277-4.5Zm-2.275,6.068-2.49-.153a2.4,2.4,0,0,0-1.157.187,1.854,1.854,0,0,0-.791.669,2.355,2.355,0,0,0-.133,2.169,1.8,1.8,0,0,0,.7.753,2.461,2.461,0,0,0,1.126.319l2.49.153Z" transform="translate(-1442.36 -325.721)" fill="#fff"></path><path d="M1452.155,418.154a6.229,6.229,0,0,1,2.127,1.249,6.1,6.1,0,0,1,1.415,1.885,6.023,6.023,0,0,1,.588,2.292,6.642,6.642,0,0,1-1.648,4.65,5.9,5.9,0,0,1-4.173,1.97,6.69,6.69,0,0,1-4.589-1.626,6,6,0,0,1-1.418-1.877,5.927,5.927,0,0,1-.58-2.289,6.368,6.368,0,0,1,.382-2.477,6.282,6.282,0,0,1,1.27-2.163,6.1,6.1,0,0,1,1.892-1.413,5.987,5.987,0,0,1,2.286-.573A6.292,6.292,0,0,1,1452.155,418.154Zm-.581,1.638a4.269,4.269,0,0,0-1.729-.254,4.153,4.153,0,0,0-1.6.433,4.325,4.325,0,0,0-1.323,1.034,4.745,4.745,0,0,0-.892,1.554,4.685,4.685,0,0,0-.283,1.761,4.441,4.441,0,0,0,.377,1.636,4.1,4.1,0,0,0,.964,1.349,4.517,4.517,0,0,0,3.232,1.145,4.091,4.091,0,0,0,1.6-.441,4.32,4.32,0,0,0,1.315-1.037,4.789,4.789,0,0,0,.882-1.549,4.846,4.846,0,0,0,.293-1.766,4.206,4.206,0,0,0-.369-1.633,4.13,4.13,0,0,0-.975-1.345A4.275,4.275,0,0,0,1451.574,419.793Z" transform="translate(-1410.018 -320.004)" fill="#fff"></path><path d="M1428.137,400.436l-6.768,9.9-1.568-1.072,5.814-8.5-4.278-2.925.954-1.4Z" transform="translate(-1393.697 -305.537)" fill="#fff"></path><path d="M1402.4,381.817l-8.6,8.356-1.323-1.362,7.387-7.179-3.611-3.717,1.212-1.178Z" transform="translate(-1375.171 -292.177)" fill="#fff"></path><path d="M1370.435,348.9l-10.746,5.32-1.742-3.52a6.687,6.687,0,0,1-.768-3.239,5.286,5.286,0,0,1,.936-2.843,6.871,6.871,0,0,1,5.618-2.781,5.328,5.328,0,0,1,2.843.972,6.627,6.627,0,0,1,2.117,2.571Zm-2.357-.952-.914-1.846a4.429,4.429,0,0,0-1.458-1.748,3.661,3.661,0,0,0-1.988-.642,4.793,4.793,0,0,0-2.277.553,4.683,4.683,0,0,0-1.809,1.479,3.743,3.743,0,0,0-.688,1.966,4.386,4.386,0,0,0,.5,2.212l.914,1.846Z" transform="translate(-1351.23 -268.504)" fill="#fff"></path><path d="M1354.167,301.34a6.235,6.235,0,0,1-.063,2.466,6.1,6.1,0,0,1-.964,2.151,6.021,6.021,0,0,1-1.721,1.624,6.269,6.269,0,0,1-2.351.872,6.338,6.338,0,0,1-2.515-.063,5.908,5.908,0,0,1-3.745-2.7,6.69,6.69,0,0,1-.8-4.8,6,6,0,0,1,.956-2.15,5.937,5.937,0,0,1,1.722-1.616,6.368,6.368,0,0,1,2.353-.864,6.271,6.271,0,0,1,2.507.064,6.092,6.092,0,0,1,2.152.972,5.99,5.99,0,0,1,1.608,1.723A6.292,6.292,0,0,1,1354.167,301.34Zm-1.715.285a4.265,4.265,0,0,0-.615-1.636,4.146,4.146,0,0,0-1.152-1.187,4.324,4.324,0,0,0-1.545-.657,4.751,4.751,0,0,0-1.791-.028,4.679,4.679,0,0,0-1.678.605,4.437,4.437,0,0,0-1.249,1.122,4.1,4.1,0,0,0-.714,1.5,4.517,4.517,0,0,0,.562,3.382,4.093,4.093,0,0,0,1.16,1.186,4.323,4.323,0,0,0,1.544.649,4.79,4.79,0,0,0,1.782.022,4.843,4.843,0,0,0,1.687-.6,4.208,4.208,0,0,0,1.251-1.113,4.122,4.122,0,0,0,.7-1.5A4.283,4.283,0,0,0,1352.451,301.625Z" transform="translate(-1340.846 -237.54)" fill="#fff"></path><path d="M1351.077,250.753l-12.369,1.29.33-1.985,10.678-.935-.081.493-9.787-4.432.324-1.953,10.695-1.03-.084.508-9.8-4.353.327-1.969,11.291,5.2-.351,2.112-10.538,1.072.092-.556,9.623,4.437Z" transform="translate(-1338.708 -197.006)" fill="#fff"></path><path d="M1364.047,209.525l-10.628-5.551.708-1.355,11.346-1.664-.236.694-8.331-4.351.872-1.669,10.629,5.551-.708,1.355-11.381,1.591.206-.673,8.4,4.389Z" transform="translate(-1348.683 -169.367)" fill="#fff"></path></svg>