<svg xmlns="http://www.w3.org/2000/svg" width="113.006" height="113" viewBox="0 0 113.006 113"><g transform="translate(-1748.122 -473.127)"><g transform="translate(1748.122 473.127)"><path d="M1841.912,500.562a4.722,4.722,0,0,1-1.893.532,4.461,4.461,0,0,1-1.836-.265,4.332,4.332,0,0,1-1.536-.978l1.034-1.231a3.368,3.368,0,0,0,1.76.862,2.987,2.987,0,0,0,1.833-.325,2.683,2.683,0,0,0,.838-.639,1.559,1.559,0,0,0,.373-.783,1.311,1.311,0,0,0-.142-.811,1.334,1.334,0,0,0-.743-.7,2.331,2.331,0,0,0-1.154-.041l-2.144.369a3.85,3.85,0,0,1-2.227-.181,2.839,2.839,0,0,1-1.431-1.357,2.93,2.93,0,0,1-.34-1.667,3.145,3.145,0,0,1,.623-1.562,4.1,4.1,0,0,1,1.459-1.2,4.567,4.567,0,0,1,1.768-.517,4.23,4.23,0,0,1,1.683.211,3.682,3.682,0,0,1,1.4.863l-1,1.231a2.679,2.679,0,0,0-3.154-.429,2.339,2.339,0,0,0-.772.605,1.469,1.469,0,0,0-.33.77,1.432,1.432,0,0,0,.165.824,1.451,1.451,0,0,0,.737.688,2.057,2.057,0,0,0,1.208.079l1.992-.34a4.24,4.24,0,0,1,2.292.114,2.693,2.693,0,0,1,1.443,1.35,2.839,2.839,0,0,1,.317,1.671,3.288,3.288,0,0,1-.668,1.6A4.455,4.455,0,0,1,1841.912,500.562Z" transform="translate(-1805.902 -484.479)" fill="#fff"></path><path d="M1867.541,488.3l-2.585-9.129-2.824.8-.424-1.5,7.275-2.06.424,1.5-2.782.788,2.586,9.129Z" transform="translate(-1824.287 -475.333)" fill="#fff"></path><path d="M1892.472,484.959l2.919-11.338,2.156-.186,4.821,10.669-1.861.161-1.056-2.394-4.475.386-.643,2.541Zm2.873-4.3,3.441-.3-2.448-5.592.488-.042Z" transform="translate(-1844.917 -473.333)" fill="#fff"></path><path d="M1927.081,484.071l1.485-10.944,3.981.54a4.449,4.449,0,0,1,1.884.667,3.118,3.118,0,0,1,1.155,1.354,3.467,3.467,0,0,1,.227,1.908,3.323,3.323,0,0,1-.829,1.862,3.248,3.248,0,0,1-1.679.969l1.928,4.75-1.968-.267-2.041-5.139,1.041.814-2.894-.393-.558,4.113Zm2.5-5.42,2.277.309a2.206,2.206,0,0,0,1.075-.094,1.706,1.706,0,0,0,.772-.561,2.169,2.169,0,0,0,.269-1.983,1.655,1.655,0,0,0-.6-.739,2.264,2.264,0,0,0-1.012-.369l-2.277-.309Z" transform="translate(-1868.124 -473.127)" fill="#fff"></path><path d="M1961.572,489.9l3.061-8.981-2.779-.947.5-1.473,7.157,2.439-.5,1.474-2.736-.933-3.061,8.981Z" transform="translate(-1891.252 -476.731)" fill="#fff"></path><path d="M1995.414,512.211a5.436,5.436,0,0,1-1.523-1.606,5.252,5.252,0,0,1-.726-1.977,5.53,5.53,0,0,1,.1-2.134,6.089,6.089,0,0,1,.982-2.1,6.2,6.2,0,0,1,1.648-1.621,5.362,5.362,0,0,1,1.983-.812,5.262,5.262,0,0,1,2.1.035,5.515,5.515,0,0,1,2.022.915,5.244,5.244,0,0,1,1.48,1.54,4.91,4.91,0,0,1,.672,1.757,3.97,3.97,0,0,1-.06,1.675l-1.711-.3a3.2,3.2,0,0,0-.09-1.835,3.143,3.143,0,0,0-1.209-1.538,3.635,3.635,0,0,0-1.885-.7,3.524,3.524,0,0,0-1.9.414,5.2,5.2,0,0,0-2.49,3.514,3.458,3.458,0,0,0,.239,1.932,3.677,3.677,0,0,0,1.289,1.54,3.11,3.11,0,0,0,3.6.119l.853,1.513a4.065,4.065,0,0,1-1.556.606,4.837,4.837,0,0,1-1.885-.046A5.237,5.237,0,0,1,1995.414,512.211Z" transform="translate(-1912.397 -492.4)" fill="#fff"></path><path d="M2015.859,530.417l8.31-7.275,2.646,3.023a4.451,4.451,0,0,1,.982,1.741,3.119,3.119,0,0,1-.018,1.779,3.463,3.463,0,0,1-1.083,1.588,3.329,3.329,0,0,1-1.848.86,3.25,3.25,0,0,1-1.9-.374l-1.667,4.848-1.309-1.495,1.838-5.215.25,1.3-1.924-2.2-3.123,2.734Zm5.447-2.443,1.514,1.729a2.2,2.2,0,0,0,.872.636,1.7,1.7,0,0,0,.95.084,2.17,2.17,0,0,0,1.506-1.318,1.658,1.658,0,0,0,.037-.948,2.262,2.262,0,0,0-.521-.943l-1.513-1.729Z" transform="translate(-1927.655 -506.665)" fill="#fff"></path><path d="M2034.98,557.48l9.639-5.393,3.554,6.352-1.359.76-2.7-4.826-2.769,1.549,2.555,4.567-1.359.76-2.555-4.567-2.795,1.564,2.7,4.826-1.358.76Z" transform="translate(-1940.476 -526.074)" fill="#fff"></path><path d="M2047.106,590.036l11.7.52.627,2.072-9.447,6.916-.541-1.788,2.125-1.526-1.3-4.3-2.618-.106Zm4.8,1.926,1,3.306,4.968-3.547.142.468Z" transform="translate(-1948.608 -551.521)" fill="#fff"></path><path d="M2056.34,619.142l9.437-.985-.3-2.919,1.548-.161.785,7.52-1.549.161-.3-2.875-9.437.984Z" transform="translate(-1954.799 -568.312)" fill="#fff"></path><path d="M2057.244,646.564l11.039.376-.06,1.748-11.038-.376Z" transform="translate(-1955.366 -589.426)" fill="#fff"></path><path d="M2053.549,659.781l10.813,2.25-.287,1.379-9.637,4.324.034-.674,8.476,1.764-.353,1.7-10.813-2.25.287-1.379,9.686-4.269-.014.648-8.549-1.779Z" transform="translate(-1951.743 -598.289)" fill="#fff"></path><path d="M2040.911,700.168a5.392,5.392,0,0,1,5.332-3.025,6.1,6.1,0,0,1,2.229.646,6.2,6.2,0,0,1,1.855,1.38,5.354,5.354,0,0,1,1.107,1.835,5.264,5.264,0,0,1,.288,2.081,5.509,5.509,0,0,1-.593,2.139,5.244,5.244,0,0,1-1.294,1.7,4.907,4.907,0,0,1-1.633.934,3.961,3.961,0,0,1-1.664.2l.017-1.731a3.081,3.081,0,0,0,1.809-.357,3.2,3.2,0,0,0,1.344-1.451,3.638,3.638,0,0,0,.4-1.97,3.521,3.521,0,0,0-.7-1.816,4.69,4.69,0,0,0-1.716-1.376,4.615,4.615,0,0,0-2.146-.53,3.558,3.558,0,0,0-1.879.547,3.678,3.678,0,0,0-1.324,1.51,3.744,3.744,0,0,0-.412,1.675,3.091,3.091,0,0,0,.41,1.571,2.833,2.833,0,0,0,1.235,1.129l.677.337-.987.386,1.864-3.742,1.327.661-2.287,4.591-.929-.463a5.407,5.407,0,0,1-1.759-1.34,4.775,4.775,0,0,1-1.126-3.641A5.5,5.5,0,0,1,2040.911,700.168Z" transform="translate(-1944.063 -623.329)" fill="#fff"></path><path d="M1983.032,762.56a4.716,4.716,0,0,1,1.867-.62,4.45,4.45,0,0,1,1.847.178,4.337,4.337,0,0,1,1.58.9l-.975,1.279a3.373,3.373,0,0,0-1.8-.778,2.99,2.99,0,0,0-1.816.411,2.675,2.675,0,0,0-.807.678,1.559,1.559,0,0,0-.335.8,1.314,1.314,0,0,0,.18.8,1.334,1.334,0,0,0,.776.665,2.324,2.324,0,0,0,1.154-.014l2.125-.469a3.848,3.848,0,0,1,2.233.076,2.836,2.836,0,0,1,1.493,1.288,2.927,2.927,0,0,1,.418,1.649,3.146,3.146,0,0,1-.548,1.589,4.107,4.107,0,0,1-1.4,1.267,4.564,4.564,0,0,1-1.742.6,4.23,4.23,0,0,1-1.691-.131,3.684,3.684,0,0,1-1.441-.8l.942-1.277a2.678,2.678,0,0,0,3.171.28,2.351,2.351,0,0,0,.743-.641,1.47,1.47,0,0,0,.293-.784,1.436,1.436,0,0,0-.2-.815,1.454,1.454,0,0,0-.769-.653,2.061,2.061,0,0,0-1.21-.022l-1.974.434a4.242,4.242,0,0,1-2.295-.006,2.7,2.7,0,0,1-1.506-1.28,2.843,2.843,0,0,1-.4-1.654,3.284,3.284,0,0,1,.592-1.631A4.457,4.457,0,0,1,1983.032,762.56Z" transform="translate(-1904.239 -666.773)" fill="#fff"></path><path d="M1962.41,774.36l3.014,9,2.783-.932.495,1.476-7.169,2.4-.495-1.476,2.741-.919-3.013-9Z" transform="translate(-1890.711 -675.121)" fill="#fff"></path><path d="M1932.89,779.055l-2.384,11.462-2.145.287-5.316-10.431,1.851-.248,1.166,2.342,4.453-.6.524-2.568Zm-2.668,4.426-3.424.459,2.707,5.471-.485.065Z" transform="translate(-1865.418 -678.269)" fill="#fff"></path><path d="M1901.276,781.261l-.97,11-4-.353a4.451,4.451,0,0,1-1.914-.578,3.121,3.121,0,0,1-1.217-1.3,3.46,3.46,0,0,1-.317-1.9,3.325,3.325,0,0,1,.741-1.9,3.246,3.246,0,0,1,1.633-1.047l-2.15-4.654,1.979.174,2.279,5.038-1.078-.765,2.909.257.364-4.135Zm-2.244,5.532-2.289-.2a2.2,2.2,0,0,0-1.069.144,1.7,1.7,0,0,0-.745.6,2.168,2.168,0,0,0-.176,1.994,1.658,1.658,0,0,0,.629.71,2.264,2.264,0,0,0,1.028.321l2.289.2Z" transform="translate(-1845.163 -679.263)" fill="#fff"></path><path d="M1868.374,776.617l-2.633,9.115,2.82.815-.432,1.5-7.264-2.1.432-1.5,2.777.8,2.633-9.115Z" transform="translate(-1823.722 -676.311)" fill="#fff"></path><path d="M1826.828,757.53a5.444,5.444,0,0,1,1.6,1.533,5.258,5.258,0,0,1,.818,1.94,5.536,5.536,0,0,1,0,2.136,6.09,6.09,0,0,1-.882,2.147,6.206,6.206,0,0,1-1.57,1.7,5.352,5.352,0,0,1-1.943.9,5.264,5.264,0,0,1-2.1.064,5.516,5.516,0,0,1-2.063-.819,5.24,5.24,0,0,1-1.551-1.468,4.907,4.907,0,0,1-.754-1.724,3.966,3.966,0,0,1-.018-1.675l1.723.223a3.2,3.2,0,0,0,.176,1.829,3.142,3.142,0,0,0,1.28,1.48,3.64,3.64,0,0,0,1.916.61,3.523,3.523,0,0,0,1.88-.5,5.2,5.2,0,0,0,2.322-3.627,3.46,3.46,0,0,0-.329-1.919,3.676,3.676,0,0,0-1.36-1.478,3.111,3.111,0,0,0-3.606.05l-.924-1.472a4.069,4.069,0,0,1,1.526-.678,4.839,4.839,0,0,1,1.885-.043A5.241,5.241,0,0,1,1826.828,757.53Z" transform="translate(-1795.164 -663.254)" fill="#fff"></path><path d="M1803.557,735.992l-7.962,7.654-2.784-2.9a4.45,4.45,0,0,1-1.062-1.693,3.125,3.125,0,0,1-.065-1.779,3.467,3.467,0,0,1,1.008-1.637,3.325,3.325,0,0,1,1.806-.945,3.25,3.25,0,0,1,1.918.285l1.439-4.921,1.377,1.432-1.594,5.295-.31-1.285,2.024,2.105,2.993-2.877Zm-5.327,2.694-1.593-1.656a2.209,2.209,0,0,0-.9-.595,1.705,1.705,0,0,0-.953-.04,2.169,2.169,0,0,0-1.443,1.387,1.657,1.657,0,0,0,.008.949,2.264,2.264,0,0,0,.564.918l1.592,1.656Z" transform="translate(-1777.266 -645.415)" fill="#fff"></path><path d="M1780.836,713.183l-9.374,5.84-3.849-6.178,1.321-.823,2.924,4.694,2.693-1.677-2.767-4.442,1.321-.823,2.767,4.442,2.718-1.693-2.924-4.694,1.321-.823Z" transform="translate(-1761.192 -629.955)" fill="#fff"></path><path d="M1769.323,685.725l-11.708.035-.724-2.04,9.109-7.356.625,1.76-2.051,1.625,1.5,4.233,2.621-.018Zm-4.881-1.7-1.156-3.255-4.794,3.779-.164-.461Z" transform="translate(-1754.002 -609.409)" fill="#fff"></path><path d="M1759.992,661.456l-9.38,1.426.441,2.9-1.539.234-1.136-7.475,1.539-.234.435,2.858,9.38-1.425Z" transform="translate(-1748.294 -597.302)" fill="#fff"></path><path d="M1759.194,645.317l-11.043.179-.028-1.749,11.043-.179Z" transform="translate(-1748.122 -587.417)" fill="#fff"></path><path d="M1759.129,614.594l-10.907-1.739.222-1.391,9.423-4.773,0,.675-8.55-1.363.273-1.713,10.907,1.739-.222,1.391-9.475,4.72-.017-.648,8.623,1.375Z" transform="translate(-1748.189 -561.08)" fill="#fff"></path><path d="M1771.892,572.841a5.393,5.393,0,0,1-5.184,3.273,6.088,6.088,0,0,1-2.256-.54,6.2,6.2,0,0,1-1.918-1.29,5.364,5.364,0,0,1-1.192-1.781,5.269,5.269,0,0,1-.386-2.066,5.51,5.51,0,0,1,.491-2.164,5.25,5.25,0,0,1,1.212-1.759,4.907,4.907,0,0,1,1.587-1.01,3.956,3.956,0,0,1,1.652-.276l.065,1.729a3.084,3.084,0,0,0-1.791.442,3.2,3.2,0,0,0-1.273,1.513,3.637,3.637,0,0,0-.308,1.987,3.522,3.522,0,0,0,.787,1.781,4.7,4.7,0,0,0,1.779,1.294,4.613,4.613,0,0,0,2.168.429,3.557,3.557,0,0,0,1.851-.635,3.673,3.673,0,0,0,1.251-1.571,3.741,3.741,0,0,0,.332-1.692,3.088,3.088,0,0,0-.484-1.55,2.832,2.832,0,0,0-1.287-1.069l-.692-.3.968-.432-1.685,3.826-1.357-.6,2.068-4.694.95.418a5.411,5.411,0,0,1,1.82,1.255,4.777,4.777,0,0,1,1.3,3.584A5.5,5.5,0,0,1,1771.892,572.841Z" transform="translate(-1756.727 -534.882)" fill="#fff"></path></g><circle cx="1.5" cy="1.5" r="1.5" transform="translate(1767.789 490.627)" fill="#fff"></circle><circle cx="1.5" cy="1.5" r="1.5" transform="translate(1839.789 563.627)" fill="#fff"></circle></g></svg>